<mxfile host="app.diagrams.net" agent="Mozilla/5.0 (Windows NT 10.0; Win64; x64) AppleWebKit/537.36 (KHTML, like Gecko) Chrome/136.0.0.0 Safari/537.36" version="27.0.6">
  <diagram name="Halaman-1" id="hH760CnBm-J4JB1uC3zW">
    <mxGraphModel dx="902" dy="495" grid="1" gridSize="10" guides="1" tooltips="1" connect="1" arrows="1" fold="1" page="1" pageScale="1" pageWidth="827" pageHeight="1169" math="0" shadow="0">
      <root>
        <mxCell id="0" />
        <mxCell id="1" parent="0" />
        <mxCell id="wqU0zI3y7p4tB1SOIqlg-23" style="edgeStyle=orthogonalEdgeStyle;rounded=0;orthogonalLoop=1;jettySize=auto;html=1;" edge="1" parent="1" source="wqU0zI3y7p4tB1SOIqlg-1" target="wqU0zI3y7p4tB1SOIqlg-13">
          <mxGeometry relative="1" as="geometry" />
        </mxCell>
        <mxCell id="wqU0zI3y7p4tB1SOIqlg-1" value="Pengunjung" style="shape=umlActor;verticalLabelPosition=bottom;verticalAlign=top;html=1;outlineConnect=0;" vertex="1" parent="1">
          <mxGeometry x="60" y="180" width="30" height="60" as="geometry" />
        </mxCell>
        <mxCell id="wqU0zI3y7p4tB1SOIqlg-47" style="edgeStyle=orthogonalEdgeStyle;rounded=0;orthogonalLoop=1;jettySize=auto;html=1;entryX=1;entryY=0.5;entryDx=0;entryDy=0;" edge="1" parent="1" source="wqU0zI3y7p4tB1SOIqlg-4" target="wqU0zI3y7p4tB1SOIqlg-37">
          <mxGeometry relative="1" as="geometry" />
        </mxCell>
        <mxCell id="wqU0zI3y7p4tB1SOIqlg-48" style="edgeStyle=orthogonalEdgeStyle;rounded=0;orthogonalLoop=1;jettySize=auto;html=1;" edge="1" parent="1" source="wqU0zI3y7p4tB1SOIqlg-4" target="wqU0zI3y7p4tB1SOIqlg-38">
          <mxGeometry relative="1" as="geometry" />
        </mxCell>
        <mxCell id="wqU0zI3y7p4tB1SOIqlg-49" style="edgeStyle=orthogonalEdgeStyle;rounded=0;orthogonalLoop=1;jettySize=auto;html=1;entryX=1;entryY=0.5;entryDx=0;entryDy=0;" edge="1" parent="1" source="wqU0zI3y7p4tB1SOIqlg-4" target="wqU0zI3y7p4tB1SOIqlg-39">
          <mxGeometry relative="1" as="geometry" />
        </mxCell>
        <mxCell id="wqU0zI3y7p4tB1SOIqlg-4" value="Admin" style="shape=umlActor;verticalLabelPosition=bottom;verticalAlign=top;html=1;outlineConnect=0;" vertex="1" parent="1">
          <mxGeometry x="720" y="160" width="30" height="60" as="geometry" />
        </mxCell>
        <mxCell id="wqU0zI3y7p4tB1SOIqlg-6" value="Login" style="ellipse;whiteSpace=wrap;html=1;" vertex="1" parent="1">
          <mxGeometry x="374" y="170" width="80" height="70" as="geometry" />
        </mxCell>
        <mxCell id="wqU0zI3y7p4tB1SOIqlg-7" value="Logout" style="ellipse;whiteSpace=wrap;html=1;" vertex="1" parent="1">
          <mxGeometry x="414" y="330" width="80" height="70" as="geometry" />
        </mxCell>
        <mxCell id="wqU0zI3y7p4tB1SOIqlg-9" value="Pendaftaran" style="ellipse;whiteSpace=wrap;html=1;" vertex="1" parent="1">
          <mxGeometry x="180" y="90" width="80" height="70" as="geometry" />
        </mxCell>
        <mxCell id="wqU0zI3y7p4tB1SOIqlg-10" style="edgeStyle=orthogonalEdgeStyle;rounded=0;orthogonalLoop=1;jettySize=auto;html=1;entryX=0.016;entryY=0.651;entryDx=0;entryDy=0;entryPerimeter=0;" edge="1" parent="1" source="wqU0zI3y7p4tB1SOIqlg-1" target="wqU0zI3y7p4tB1SOIqlg-9">
          <mxGeometry relative="1" as="geometry">
            <Array as="points">
              <mxPoint x="140" y="210" />
              <mxPoint x="140" y="136" />
            </Array>
          </mxGeometry>
        </mxCell>
        <mxCell id="wqU0zI3y7p4tB1SOIqlg-11" value="" style="endArrow=none;dashed=1;html=1;rounded=0;entryX=0.045;entryY=0.292;entryDx=0;entryDy=0;entryPerimeter=0;" edge="1" parent="1" source="wqU0zI3y7p4tB1SOIqlg-9" target="wqU0zI3y7p4tB1SOIqlg-6">
          <mxGeometry width="50" height="50" relative="1" as="geometry">
            <mxPoint x="330" y="130" as="sourcePoint" />
            <mxPoint x="431" y="284" as="targetPoint" />
          </mxGeometry>
        </mxCell>
        <mxCell id="wqU0zI3y7p4tB1SOIqlg-12" value="Include" style="edgeLabel;html=1;align=center;verticalAlign=middle;resizable=0;points=[];" vertex="1" connectable="0" parent="wqU0zI3y7p4tB1SOIqlg-11">
          <mxGeometry x="0.0921" y="-2" relative="1" as="geometry">
            <mxPoint as="offset" />
          </mxGeometry>
        </mxCell>
        <mxCell id="wqU0zI3y7p4tB1SOIqlg-13" value="Penginapan" style="ellipse;whiteSpace=wrap;html=1;" vertex="1" parent="1">
          <mxGeometry x="180" y="180" width="80" height="70" as="geometry" />
        </mxCell>
        <mxCell id="wqU0zI3y7p4tB1SOIqlg-14" value="Booking" style="ellipse;whiteSpace=wrap;html=1;" vertex="1" parent="1">
          <mxGeometry x="180" y="270" width="80" height="70" as="geometry" />
        </mxCell>
        <mxCell id="wqU0zI3y7p4tB1SOIqlg-15" value="" style="endArrow=none;dashed=1;html=1;rounded=0;entryX=0;entryY=0.5;entryDx=0;entryDy=0;exitX=1.007;exitY=0.31;exitDx=0;exitDy=0;exitPerimeter=0;" edge="1" parent="1" source="wqU0zI3y7p4tB1SOIqlg-13" target="wqU0zI3y7p4tB1SOIqlg-6">
          <mxGeometry width="50" height="50" relative="1" as="geometry">
            <mxPoint x="260" y="140" as="sourcePoint" />
            <mxPoint x="362" y="204" as="targetPoint" />
          </mxGeometry>
        </mxCell>
        <mxCell id="wqU0zI3y7p4tB1SOIqlg-16" value="Include" style="edgeLabel;html=1;align=center;verticalAlign=middle;resizable=0;points=[];" vertex="1" connectable="0" parent="wqU0zI3y7p4tB1SOIqlg-15">
          <mxGeometry x="0.0921" y="-2" relative="1" as="geometry">
            <mxPoint as="offset" />
          </mxGeometry>
        </mxCell>
        <mxCell id="wqU0zI3y7p4tB1SOIqlg-22" value="Pembayaran" style="ellipse;whiteSpace=wrap;html=1;" vertex="1" parent="1">
          <mxGeometry x="290" y="340" width="80" height="70" as="geometry" />
        </mxCell>
        <mxCell id="wqU0zI3y7p4tB1SOIqlg-24" style="edgeStyle=orthogonalEdgeStyle;rounded=0;orthogonalLoop=1;jettySize=auto;html=1;entryX=-0.002;entryY=0.656;entryDx=0;entryDy=0;entryPerimeter=0;" edge="1" parent="1" source="wqU0zI3y7p4tB1SOIqlg-1" target="wqU0zI3y7p4tB1SOIqlg-14">
          <mxGeometry relative="1" as="geometry" />
        </mxCell>
        <mxCell id="wqU0zI3y7p4tB1SOIqlg-26" value="" style="endArrow=none;dashed=1;html=1;rounded=0;entryX=0.682;entryY=0.921;entryDx=0;entryDy=0;exitX=0.5;exitY=0;exitDx=0;exitDy=0;entryPerimeter=0;" edge="1" parent="1" source="wqU0zI3y7p4tB1SOIqlg-7" target="wqU0zI3y7p4tB1SOIqlg-6">
          <mxGeometry width="50" height="50" relative="1" as="geometry">
            <mxPoint x="300" y="210" as="sourcePoint" />
            <mxPoint x="413" y="213" as="targetPoint" />
          </mxGeometry>
        </mxCell>
        <mxCell id="wqU0zI3y7p4tB1SOIqlg-27" value="Extend" style="edgeLabel;html=1;align=center;verticalAlign=middle;resizable=0;points=[];" vertex="1" connectable="0" parent="wqU0zI3y7p4tB1SOIqlg-26">
          <mxGeometry x="0.0921" y="-2" relative="1" as="geometry">
            <mxPoint as="offset" />
          </mxGeometry>
        </mxCell>
        <mxCell id="wqU0zI3y7p4tB1SOIqlg-29" value="" style="endArrow=none;dashed=1;html=1;rounded=0;entryX=0.064;entryY=0.744;entryDx=0;entryDy=0;entryPerimeter=0;" edge="1" parent="1" source="wqU0zI3y7p4tB1SOIqlg-14" target="wqU0zI3y7p4tB1SOIqlg-6">
          <mxGeometry width="50" height="50" relative="1" as="geometry">
            <mxPoint x="280" y="200" as="sourcePoint" />
            <mxPoint x="393" y="203" as="targetPoint" />
          </mxGeometry>
        </mxCell>
        <mxCell id="wqU0zI3y7p4tB1SOIqlg-30" value="Include" style="edgeLabel;html=1;align=center;verticalAlign=middle;resizable=0;points=[];" vertex="1" connectable="0" parent="wqU0zI3y7p4tB1SOIqlg-29">
          <mxGeometry x="0.0921" y="-2" relative="1" as="geometry">
            <mxPoint as="offset" />
          </mxGeometry>
        </mxCell>
        <mxCell id="wqU0zI3y7p4tB1SOIqlg-33" value="" style="endArrow=none;dashed=1;html=1;rounded=0;entryX=1;entryY=0.5;entryDx=0;entryDy=0;exitX=0.614;exitY=-0.012;exitDx=0;exitDy=0;exitPerimeter=0;" edge="1" parent="1" source="wqU0zI3y7p4tB1SOIqlg-22" target="wqU0zI3y7p4tB1SOIqlg-14">
          <mxGeometry width="50" height="50" relative="1" as="geometry">
            <mxPoint x="461" y="326" as="sourcePoint" />
            <mxPoint x="420" y="240" as="targetPoint" />
          </mxGeometry>
        </mxCell>
        <mxCell id="wqU0zI3y7p4tB1SOIqlg-34" value="Extend" style="edgeLabel;html=1;align=center;verticalAlign=middle;resizable=0;points=[];" vertex="1" connectable="0" parent="wqU0zI3y7p4tB1SOIqlg-33">
          <mxGeometry x="0.0921" y="-2" relative="1" as="geometry">
            <mxPoint as="offset" />
          </mxGeometry>
        </mxCell>
        <mxCell id="wqU0zI3y7p4tB1SOIqlg-37" value="Penginapan" style="ellipse;whiteSpace=wrap;html=1;" vertex="1" parent="1">
          <mxGeometry x="500" y="70" width="80" height="70" as="geometry" />
        </mxCell>
        <mxCell id="wqU0zI3y7p4tB1SOIqlg-38" value="Pengguna" style="ellipse;whiteSpace=wrap;html=1;" vertex="1" parent="1">
          <mxGeometry x="530" y="150" width="80" height="70" as="geometry" />
        </mxCell>
        <mxCell id="wqU0zI3y7p4tB1SOIqlg-39" value="Laporan" style="ellipse;whiteSpace=wrap;html=1;" vertex="1" parent="1">
          <mxGeometry x="530" y="260" width="80" height="70" as="geometry" />
        </mxCell>
        <mxCell id="wqU0zI3y7p4tB1SOIqlg-40" value="" style="endArrow=none;dashed=1;html=1;rounded=0;entryX=0.691;entryY=-0.014;entryDx=0;entryDy=0;entryPerimeter=0;" edge="1" parent="1" source="wqU0zI3y7p4tB1SOIqlg-37" target="wqU0zI3y7p4tB1SOIqlg-6">
          <mxGeometry width="50" height="50" relative="1" as="geometry">
            <mxPoint x="260" y="140" as="sourcePoint" />
            <mxPoint x="382" y="190" as="targetPoint" />
          </mxGeometry>
        </mxCell>
        <mxCell id="wqU0zI3y7p4tB1SOIqlg-41" value="Include" style="edgeLabel;html=1;align=center;verticalAlign=middle;resizable=0;points=[];" vertex="1" connectable="0" parent="wqU0zI3y7p4tB1SOIqlg-40">
          <mxGeometry x="0.0921" y="-2" relative="1" as="geometry">
            <mxPoint as="offset" />
          </mxGeometry>
        </mxCell>
        <mxCell id="wqU0zI3y7p4tB1SOIqlg-42" value="" style="endArrow=none;dashed=1;html=1;rounded=0;entryX=0.964;entryY=0.651;entryDx=0;entryDy=0;entryPerimeter=0;exitX=0.032;exitY=0.656;exitDx=0;exitDy=0;exitPerimeter=0;" edge="1" parent="1" source="wqU0zI3y7p4tB1SOIqlg-38" target="wqU0zI3y7p4tB1SOIqlg-6">
          <mxGeometry width="50" height="50" relative="1" as="geometry">
            <mxPoint x="528" y="170" as="sourcePoint" />
            <mxPoint x="450" y="215" as="targetPoint" />
          </mxGeometry>
        </mxCell>
        <mxCell id="wqU0zI3y7p4tB1SOIqlg-43" value="Include" style="edgeLabel;html=1;align=center;verticalAlign=middle;resizable=0;points=[];" vertex="1" connectable="0" parent="wqU0zI3y7p4tB1SOIqlg-42">
          <mxGeometry x="0.0921" y="-2" relative="1" as="geometry">
            <mxPoint as="offset" />
          </mxGeometry>
        </mxCell>
        <mxCell id="wqU0zI3y7p4tB1SOIqlg-45" value="" style="endArrow=none;dashed=1;html=1;rounded=0;exitX=0.305;exitY=0.04;exitDx=0;exitDy=0;exitPerimeter=0;" edge="1" parent="1" source="wqU0zI3y7p4tB1SOIqlg-39" target="wqU0zI3y7p4tB1SOIqlg-6">
          <mxGeometry width="50" height="50" relative="1" as="geometry">
            <mxPoint x="598" y="270" as="sourcePoint" />
            <mxPoint x="520" y="315" as="targetPoint" />
          </mxGeometry>
        </mxCell>
        <mxCell id="wqU0zI3y7p4tB1SOIqlg-46" value="Include" style="edgeLabel;html=1;align=center;verticalAlign=middle;resizable=0;points=[];" vertex="1" connectable="0" parent="wqU0zI3y7p4tB1SOIqlg-45">
          <mxGeometry x="0.0921" y="-2" relative="1" as="geometry">
            <mxPoint as="offset" />
          </mxGeometry>
        </mxCell>
      </root>
    </mxGraphModel>
  </diagram>
</mxfile>
